<mxfile host="app.diagrams.net" agent="Mozilla/5.0 (Windows NT 10.0; Win64; x64) AppleWebKit/537.36 (KHTML, like Gecko) Chrome/133.0.0.0 Safari/537.36" version="26.0.11">
  <diagram name="Page-1" id="lh4PYqW2Z1pioIHSP8xq">
    <mxGraphModel dx="4300" dy="2447" grid="1" gridSize="10" guides="1" tooltips="1" connect="1" arrows="1" fold="1" page="1" pageScale="1" pageWidth="827" pageHeight="1169" math="0" shadow="0">
      <root>
        <mxCell id="0" />
        <mxCell id="1" parent="0" />
        <mxCell id="ow5rzcQxI6N4TbthBqpr-7" value="s_menu = e_AmplSet" style="rhombus;whiteSpace=wrap;html=1;" parent="1" vertex="1">
          <mxGeometry x="306" y="2479" width="210" height="190" as="geometry" />
        </mxCell>
        <mxCell id="ow5rzcQxI6N4TbthBqpr-13" value="" style="endArrow=classic;html=1;rounded=0;entryX=0.5;entryY=0;entryDx=0;entryDy=0;exitX=0.5;exitY=1;exitDx=0;exitDy=0;" parent="1" source="ow5rzcQxI6N4TbthBqpr-7" edge="1" target="ow5rzcQxI6N4TbthBqpr-32">
          <mxGeometry width="50" height="50" relative="1" as="geometry">
            <mxPoint x="395" y="2670" as="sourcePoint" />
            <mxPoint x="411" y="2720" as="targetPoint" />
          </mxGeometry>
        </mxCell>
        <mxCell id="ow5rzcQxI6N4TbthBqpr-14" value="" style="endArrow=classic;html=1;rounded=0;exitX=1;exitY=0.5;exitDx=0;exitDy=0;entryX=0;entryY=0.5;entryDx=0;entryDy=0;" parent="1" source="ow5rzcQxI6N4TbthBqpr-7" edge="1">
          <mxGeometry width="50" height="50" relative="1" as="geometry">
            <mxPoint x="615" y="2530" as="sourcePoint" />
            <mxPoint x="600" y="2574" as="targetPoint" />
          </mxGeometry>
        </mxCell>
        <mxCell id="ow5rzcQxI6N4TbthBqpr-19" value="s_menu = e_FreqSet" style="rhombus;whiteSpace=wrap;html=1;" parent="1" vertex="1">
          <mxGeometry x="306" y="1690" width="210" height="190" as="geometry" />
        </mxCell>
        <mxCell id="ow5rzcQxI6N4TbthBqpr-20" value="" style="endArrow=classic;html=1;rounded=0;entryX=0.5;entryY=0;entryDx=0;entryDy=0;exitX=0.5;exitY=1;exitDx=0;exitDy=0;" parent="1" source="ow5rzcQxI6N4TbthBqpr-19" edge="1" target="ow5rzcQxI6N4TbthBqpr-7">
          <mxGeometry width="50" height="50" relative="1" as="geometry">
            <mxPoint x="395" y="1881" as="sourcePoint" />
            <mxPoint x="411" y="1931" as="targetPoint" />
          </mxGeometry>
        </mxCell>
        <mxCell id="ow5rzcQxI6N4TbthBqpr-21" value="" style="endArrow=classic;html=1;rounded=0;exitX=1;exitY=0.5;exitDx=0;exitDy=0;entryX=0;entryY=0.5;entryDx=0;entryDy=0;" parent="1" source="ow5rzcQxI6N4TbthBqpr-19" edge="1">
          <mxGeometry width="50" height="50" relative="1" as="geometry">
            <mxPoint x="615" y="1741" as="sourcePoint" />
            <mxPoint x="600" y="1785" as="targetPoint" />
          </mxGeometry>
        </mxCell>
        <mxCell id="ow5rzcQxI6N4TbthBqpr-22" value="s_menu = e_FormeSet" style="rhombus;whiteSpace=wrap;html=1;" parent="1" vertex="1">
          <mxGeometry x="306" y="890" width="210" height="190" as="geometry" />
        </mxCell>
        <mxCell id="ow5rzcQxI6N4TbthBqpr-23" value="" style="endArrow=classic;html=1;rounded=0;entryX=0.5;entryY=0;entryDx=0;entryDy=0;exitX=0.5;exitY=1;exitDx=0;exitDy=0;" parent="1" source="ow5rzcQxI6N4TbthBqpr-22" target="ow5rzcQxI6N4TbthBqpr-19" edge="1">
          <mxGeometry width="50" height="50" relative="1" as="geometry">
            <mxPoint x="387" y="1079" as="sourcePoint" />
            <mxPoint x="403" y="1129" as="targetPoint" />
          </mxGeometry>
        </mxCell>
        <mxCell id="ow5rzcQxI6N4TbthBqpr-24" value="" style="endArrow=classic;html=1;rounded=0;exitX=1;exitY=0.5;exitDx=0;exitDy=0;entryX=0;entryY=0.5;entryDx=0;entryDy=0;" parent="1" source="ow5rzcQxI6N4TbthBqpr-22" edge="1">
          <mxGeometry width="50" height="50" relative="1" as="geometry">
            <mxPoint x="607" y="939" as="sourcePoint" />
            <mxPoint x="592" y="983" as="targetPoint" />
          </mxGeometry>
        </mxCell>
        <mxCell id="ow5rzcQxI6N4TbthBqpr-25" value="s_menu = e_Slector" style="rhombus;whiteSpace=wrap;html=1;" parent="1" vertex="1">
          <mxGeometry x="309" y="250" width="210" height="190" as="geometry" />
        </mxCell>
        <mxCell id="ow5rzcQxI6N4TbthBqpr-26" value="" style="endArrow=classic;html=1;rounded=0;entryX=0.5;entryY=0;entryDx=0;entryDy=0;exitX=0.5;exitY=1;exitDx=0;exitDy=0;" parent="1" source="ow5rzcQxI6N4TbthBqpr-25" target="ow5rzcQxI6N4TbthBqpr-22" edge="1">
          <mxGeometry width="50" height="50" relative="1" as="geometry">
            <mxPoint x="390" y="451" as="sourcePoint" />
            <mxPoint x="406" y="501" as="targetPoint" />
          </mxGeometry>
        </mxCell>
        <mxCell id="ow5rzcQxI6N4TbthBqpr-27" value="" style="endArrow=classic;html=1;rounded=0;exitX=1;exitY=0.5;exitDx=0;exitDy=0;" parent="1" source="ow5rzcQxI6N4TbthBqpr-25" edge="1">
          <mxGeometry width="50" height="50" relative="1" as="geometry">
            <mxPoint x="610" y="311" as="sourcePoint" />
            <mxPoint x="600" y="345" as="targetPoint" />
          </mxGeometry>
        </mxCell>
        <mxCell id="ow5rzcQxI6N4TbthBqpr-28" value="Start" style="rounded=1;whiteSpace=wrap;html=1;" parent="1" vertex="1">
          <mxGeometry x="120" y="130" width="120" height="60" as="geometry" />
        </mxCell>
        <mxCell id="ow5rzcQxI6N4TbthBqpr-29" value="Switch s_menu" style="rounded=0;whiteSpace=wrap;html=1;" parent="1" vertex="1">
          <mxGeometry x="351" y="130" width="120" height="60" as="geometry" />
        </mxCell>
        <mxCell id="ow5rzcQxI6N4TbthBqpr-30" value="" style="endArrow=classic;html=1;rounded=0;exitX=1;exitY=0.5;exitDx=0;exitDy=0;entryX=0;entryY=0.5;entryDx=0;entryDy=0;" parent="1" source="ow5rzcQxI6N4TbthBqpr-28" target="ow5rzcQxI6N4TbthBqpr-29" edge="1">
          <mxGeometry width="50" height="50" relative="1" as="geometry">
            <mxPoint x="470" y="340" as="sourcePoint" />
            <mxPoint x="520" y="290" as="targetPoint" />
          </mxGeometry>
        </mxCell>
        <mxCell id="ow5rzcQxI6N4TbthBqpr-31" value="" style="endArrow=classic;html=1;rounded=0;exitX=0.5;exitY=1;exitDx=0;exitDy=0;entryX=0.5;entryY=0;entryDx=0;entryDy=0;" parent="1" source="ow5rzcQxI6N4TbthBqpr-29" target="ow5rzcQxI6N4TbthBqpr-25" edge="1">
          <mxGeometry width="50" height="50" relative="1" as="geometry">
            <mxPoint x="240" y="170" as="sourcePoint" />
            <mxPoint x="351" y="170" as="targetPoint" />
          </mxGeometry>
        </mxCell>
        <mxCell id="ow5rzcQxI6N4TbthBqpr-32" value="&lt;br&gt;&lt;span style=&quot;color: rgb(0, 0, 0); font-family: Helvetica; font-size: 12px; font-style: normal; font-variant-ligatures: normal; font-variant-caps: normal; font-weight: 400; letter-spacing: normal; orphans: 2; text-align: center; text-indent: 0px; text-transform: none; widows: 2; word-spacing: 0px; -webkit-text-stroke-width: 0px; white-space: normal; background-color: rgb(251, 251, 251); text-decoration-thickness: initial; text-decoration-style: initial; text-decoration-color: initial; float: none; display: inline !important;&quot;&gt;s_menu = e_OffSet7&lt;/span&gt;&lt;div&gt;&lt;br&gt;&lt;/div&gt;" style="rhombus;whiteSpace=wrap;html=1;" parent="1" vertex="1">
          <mxGeometry x="306" y="3060" width="210" height="190" as="geometry" />
        </mxCell>
        <mxCell id="ow5rzcQxI6N4TbthBqpr-33" value="" style="endArrow=classic;html=1;rounded=0;entryX=0.5;entryY=0;entryDx=0;entryDy=0;exitX=0.5;exitY=1;exitDx=0;exitDy=0;" parent="1" source="ow5rzcQxI6N4TbthBqpr-32" edge="1">
          <mxGeometry width="50" height="50" relative="1" as="geometry">
            <mxPoint x="411" y="3745" as="sourcePoint" />
            <mxPoint x="411" y="3796" as="targetPoint" />
          </mxGeometry>
        </mxCell>
        <mxCell id="ow5rzcQxI6N4TbthBqpr-34" value="" style="endArrow=classic;html=1;rounded=0;exitX=1;exitY=0.5;exitDx=0;exitDy=0;entryX=0;entryY=0.5;entryDx=0;entryDy=0;" parent="1" source="ow5rzcQxI6N4TbthBqpr-32" edge="1">
          <mxGeometry width="50" height="50" relative="1" as="geometry">
            <mxPoint x="615" y="3111" as="sourcePoint" />
            <mxPoint x="600" y="3155" as="targetPoint" />
          </mxGeometry>
        </mxCell>
        <mxCell id="ow5rzcQxI6N4TbthBqpr-43" style="edgeStyle=orthogonalEdgeStyle;rounded=0;orthogonalLoop=1;jettySize=auto;html=1;exitX=0.5;exitY=1;exitDx=0;exitDy=0;" parent="1" source="ow5rzcQxI6N4TbthBqpr-42" target="ow5rzcQxI6N4TbthBqpr-44" edge="1">
          <mxGeometry relative="1" as="geometry">
            <mxPoint x="705" y="470" as="targetPoint" />
          </mxGeometry>
        </mxCell>
        <mxCell id="ow5rzcQxI6N4TbthBqpr-45" style="edgeStyle=orthogonalEdgeStyle;rounded=0;orthogonalLoop=1;jettySize=auto;html=1;" parent="1" source="ow5rzcQxI6N4TbthBqpr-42" edge="1">
          <mxGeometry relative="1" as="geometry">
            <mxPoint x="860" y="345" as="targetPoint" />
          </mxGeometry>
        </mxCell>
        <mxCell id="ow5rzcQxI6N4TbthBqpr-42" value="si Pec12.inc = 1" style="rhombus;whiteSpace=wrap;html=1;" parent="1" vertex="1">
          <mxGeometry x="600" y="250" width="210" height="190" as="geometry" />
        </mxCell>
        <mxCell id="ow5rzcQxI6N4TbthBqpr-44" value="s_menu_copy incrément" style="rounded=0;whiteSpace=wrap;html=1;" parent="1" vertex="1">
          <mxGeometry x="645" y="470" width="120" height="60" as="geometry" />
        </mxCell>
        <mxCell id="ow5rzcQxI6N4TbthBqpr-46" value="si Pec12.Dec= 1" style="rhombus;whiteSpace=wrap;html=1;" parent="1" vertex="1">
          <mxGeometry x="860" y="250" width="210" height="190" as="geometry" />
        </mxCell>
        <mxCell id="ow5rzcQxI6N4TbthBqpr-47" value="s_menu_copy&lt;br&gt;&amp;nbsp;décrément" style="rounded=0;whiteSpace=wrap;html=1;" parent="1" vertex="1">
          <mxGeometry x="905" y="470" width="120" height="60" as="geometry" />
        </mxCell>
        <mxCell id="ow5rzcQxI6N4TbthBqpr-48" style="edgeStyle=orthogonalEdgeStyle;rounded=0;orthogonalLoop=1;jettySize=auto;html=1;" parent="1" edge="1">
          <mxGeometry relative="1" as="geometry">
            <mxPoint x="1120" y="345" as="targetPoint" />
            <mxPoint x="1070" y="345" as="sourcePoint" />
          </mxGeometry>
        </mxCell>
        <mxCell id="ow5rzcQxI6N4TbthBqpr-49" value="si&amp;nbsp;Pec12.OK= 1" style="rhombus;whiteSpace=wrap;html=1;" parent="1" vertex="1">
          <mxGeometry x="1120" y="250" width="210" height="190" as="geometry" />
        </mxCell>
        <mxCell id="ow5rzcQxI6N4TbthBqpr-50" value="s_menu = s_menu_copy" style="rounded=0;whiteSpace=wrap;html=1;" parent="1" vertex="1">
          <mxGeometry x="1165" y="470" width="120" height="60" as="geometry" />
        </mxCell>
        <mxCell id="ow5rzcQxI6N4TbthBqpr-51" value="" style="endArrow=classic;html=1;rounded=0;exitX=0.5;exitY=1;exitDx=0;exitDy=0;entryX=0.5;entryY=0;entryDx=0;entryDy=0;" parent="1" source="ow5rzcQxI6N4TbthBqpr-46" target="ow5rzcQxI6N4TbthBqpr-47" edge="1">
          <mxGeometry width="50" height="50" relative="1" as="geometry">
            <mxPoint x="1170" y="510" as="sourcePoint" />
            <mxPoint x="1220" y="460" as="targetPoint" />
          </mxGeometry>
        </mxCell>
        <mxCell id="ow5rzcQxI6N4TbthBqpr-52" value="" style="endArrow=classic;html=1;rounded=0;exitX=0.5;exitY=1;exitDx=0;exitDy=0;entryX=0.5;entryY=0;entryDx=0;entryDy=0;" parent="1" source="ow5rzcQxI6N4TbthBqpr-49" target="ow5rzcQxI6N4TbthBqpr-50" edge="1">
          <mxGeometry width="50" height="50" relative="1" as="geometry">
            <mxPoint x="1170" y="510" as="sourcePoint" />
            <mxPoint x="1220" y="460" as="targetPoint" />
          </mxGeometry>
        </mxCell>
        <mxCell id="ow5rzcQxI6N4TbthBqpr-57" style="edgeStyle=orthogonalEdgeStyle;rounded=0;orthogonalLoop=1;jettySize=auto;html=1;exitX=1;exitY=0.5;exitDx=0;exitDy=0;" parent="1" source="ow5rzcQxI6N4TbthBqpr-54" edge="1">
          <mxGeometry relative="1" as="geometry">
            <mxPoint x="1670" y="345" as="targetPoint" />
          </mxGeometry>
        </mxCell>
        <mxCell id="ow5rzcQxI6N4TbthBqpr-54" value="si&amp;nbsp;S9.keyValue= 1" style="rhombus;whiteSpace=wrap;html=1;" parent="1" vertex="1">
          <mxGeometry x="1380" y="250" width="210" height="190" as="geometry" />
        </mxCell>
        <mxCell id="ow5rzcQxI6N4TbthBqpr-56" value="" style="endArrow=classic;html=1;rounded=0;exitX=1;exitY=0.5;exitDx=0;exitDy=0;entryX=0;entryY=0.5;entryDx=0;entryDy=0;" parent="1" source="ow5rzcQxI6N4TbthBqpr-49" target="ow5rzcQxI6N4TbthBqpr-54" edge="1">
          <mxGeometry width="50" height="50" relative="1" as="geometry">
            <mxPoint x="1330" y="500" as="sourcePoint" />
            <mxPoint x="1380" y="450" as="targetPoint" />
          </mxGeometry>
        </mxCell>
        <mxCell id="ow5rzcQxI6N4TbthBqpr-59" value="Mise à jour affichage&amp;nbsp;" style="rounded=0;whiteSpace=wrap;html=1;" parent="1" vertex="1">
          <mxGeometry x="1670" y="315" width="240" height="60" as="geometry" />
        </mxCell>
        <mxCell id="ow5rzcQxI6N4TbthBqpr-60" value="incrément S9cntPressed" style="rounded=0;whiteSpace=wrap;html=1;" parent="1" vertex="1">
          <mxGeometry x="1425" y="470" width="120" height="60" as="geometry" />
        </mxCell>
        <mxCell id="XoREdaPtWnGIuF7Jhx0u-171" value="" style="edgeStyle=none;curved=1;rounded=0;orthogonalLoop=1;jettySize=auto;html=1;fontSize=12;startSize=8;endSize=8;" edge="1" parent="1" source="ow5rzcQxI6N4TbthBqpr-62" target="ow5rzcQxI6N4TbthBqpr-63">
          <mxGeometry relative="1" as="geometry" />
        </mxCell>
        <mxCell id="ow5rzcQxI6N4TbthBqpr-62" value="affichage Save OK" style="rounded=0;whiteSpace=wrap;html=1;" parent="1" vertex="1">
          <mxGeometry x="843" y="4010" width="240" height="60" as="geometry" />
        </mxCell>
        <mxCell id="XoREdaPtWnGIuF7Jhx0u-172" value="" style="edgeStyle=none;curved=1;rounded=0;orthogonalLoop=1;jettySize=auto;html=1;fontSize=12;startSize=8;endSize=8;" edge="1" parent="1" source="ow5rzcQxI6N4TbthBqpr-63" target="XoREdaPtWnGIuF7Jhx0u-158">
          <mxGeometry relative="1" as="geometry" />
        </mxCell>
        <mxCell id="ow5rzcQxI6N4TbthBqpr-63" value="Sauvegarde des data dans NVM" style="rounded=0;whiteSpace=wrap;html=1;" parent="1" vertex="1">
          <mxGeometry x="843" y="4120" width="240" height="60" as="geometry" />
        </mxCell>
        <mxCell id="ow5rzcQxI6N4TbthBqpr-65" value="affichage Sauvegarde" style="rounded=0;whiteSpace=wrap;html=1;" parent="1" vertex="1">
          <mxGeometry x="600" y="3860" width="146" height="60" as="geometry" />
        </mxCell>
        <mxCell id="ow5rzcQxI6N4TbthBqpr-66" value="s_menu = e_MenuSave" style="rounded=0;whiteSpace=wrap;html=1;" parent="1" vertex="1">
          <mxGeometry x="1425" y="565.5" width="120" height="60" as="geometry" />
        </mxCell>
        <mxCell id="ow5rzcQxI6N4TbthBqpr-67" value="&lt;br&gt;&lt;span style=&quot;color: rgb(0, 0, 0); font-family: Helvetica; font-size: 12px; font-style: normal; font-variant-ligatures: normal; font-variant-caps: normal; font-weight: 400; letter-spacing: normal; orphans: 2; text-align: center; text-indent: 0px; text-transform: none; widows: 2; word-spacing: 0px; -webkit-text-stroke-width: 0px; white-space: normal; background-color: rgb(251, 251, 251); text-decoration-thickness: initial; text-decoration-style: initial; text-decoration-color: initial; float: none; display: inline !important;&quot;&gt;s_menu = e_MenuSave&lt;/span&gt;&lt;div&gt;&lt;br&gt;&lt;/div&gt;" style="rhombus;whiteSpace=wrap;html=1;" parent="1" vertex="1">
          <mxGeometry x="306" y="3795" width="210" height="190" as="geometry" />
        </mxCell>
        <mxCell id="ow5rzcQxI6N4TbthBqpr-69" value="" style="endArrow=classic;html=1;rounded=0;exitX=1;exitY=0.5;exitDx=0;exitDy=0;entryX=0;entryY=0.5;entryDx=0;entryDy=0;" parent="1" source="ow5rzcQxI6N4TbthBqpr-67" edge="1">
          <mxGeometry width="50" height="50" relative="1" as="geometry">
            <mxPoint x="615" y="3846" as="sourcePoint" />
            <mxPoint x="600" y="3890" as="targetPoint" />
          </mxGeometry>
        </mxCell>
        <mxCell id="XoREdaPtWnGIuF7Jhx0u-1" style="edgeStyle=none;curved=1;rounded=0;orthogonalLoop=1;jettySize=auto;html=1;entryX=0;entryY=0.5;entryDx=0;entryDy=0;fontSize=12;startSize=8;endSize=8;" edge="1" parent="1" source="ow5rzcQxI6N4TbthBqpr-83" target="ow5rzcQxI6N4TbthBqpr-89">
          <mxGeometry relative="1" as="geometry" />
        </mxCell>
        <mxCell id="ow5rzcQxI6N4TbthBqpr-83" value="Mise à jour affichage" style="rounded=0;whiteSpace=wrap;html=1;" parent="1" vertex="1">
          <mxGeometry x="590" y="950.5" width="120" height="60" as="geometry" />
        </mxCell>
        <mxCell id="ow5rzcQxI6N4TbthBqpr-88" style="edgeStyle=orthogonalEdgeStyle;rounded=0;orthogonalLoop=1;jettySize=auto;html=1;exitX=1;exitY=0.5;exitDx=0;exitDy=0;" parent="1" source="ow5rzcQxI6N4TbthBqpr-89" edge="1">
          <mxGeometry relative="1" as="geometry">
            <mxPoint x="1330" y="985" as="targetPoint" />
            <mxPoint x="1280" y="985" as="sourcePoint" />
          </mxGeometry>
        </mxCell>
        <mxCell id="ow5rzcQxI6N4TbthBqpr-89" value="si Pec12.inc = 1" style="rhombus;whiteSpace=wrap;html=1;" parent="1" vertex="1">
          <mxGeometry x="827" y="889" width="210" height="190" as="geometry" />
        </mxCell>
        <mxCell id="ow5rzcQxI6N4TbthBqpr-91" value="e_FormeSignal_Copy incrément" style="rounded=0;whiteSpace=wrap;html=1;" parent="1" vertex="1">
          <mxGeometry x="1080" y="1185" width="120" height="60" as="geometry" />
        </mxCell>
        <mxCell id="ow5rzcQxI6N4TbthBqpr-92" value="si Pec12.Dec= 1" style="rhombus;whiteSpace=wrap;html=1;" parent="1" vertex="1">
          <mxGeometry x="1330" y="890" width="210" height="190" as="geometry" />
        </mxCell>
        <mxCell id="ow5rzcQxI6N4TbthBqpr-94" style="edgeStyle=orthogonalEdgeStyle;rounded=0;orthogonalLoop=1;jettySize=auto;html=1;entryX=0;entryY=0.5;entryDx=0;entryDy=0;" parent="1" edge="1" target="ow5rzcQxI6N4TbthBqpr-95">
          <mxGeometry relative="1" as="geometry">
            <mxPoint x="1590" y="985" as="targetPoint" />
            <mxPoint x="1540" y="985" as="sourcePoint" />
          </mxGeometry>
        </mxCell>
        <mxCell id="ow5rzcQxI6N4TbthBqpr-95" value="si&amp;nbsp;Pec12.OK= 1" style="rhombus;whiteSpace=wrap;html=1;" parent="1" vertex="1">
          <mxGeometry x="1740" y="889" width="210" height="190" as="geometry" />
        </mxCell>
        <mxCell id="ow5rzcQxI6N4TbthBqpr-96" value="e_FormeSignal = e_FormeSignal_Copy" style="rounded=0;whiteSpace=wrap;html=1;" parent="1" vertex="1">
          <mxGeometry x="1785" y="1109" width="120" height="60" as="geometry" />
        </mxCell>
        <mxCell id="ow5rzcQxI6N4TbthBqpr-97" value="" style="endArrow=classic;html=1;rounded=0;exitX=0.5;exitY=1;exitDx=0;exitDy=0;entryX=0.5;entryY=0;entryDx=0;entryDy=0;" parent="1" source="ow5rzcQxI6N4TbthBqpr-92" edge="1">
          <mxGeometry width="50" height="50" relative="1" as="geometry">
            <mxPoint x="1640" y="1150" as="sourcePoint" />
            <mxPoint x="1435" y="1110" as="targetPoint" />
          </mxGeometry>
        </mxCell>
        <mxCell id="ow5rzcQxI6N4TbthBqpr-98" value="" style="endArrow=classic;html=1;rounded=0;exitX=0.5;exitY=1;exitDx=0;exitDy=0;entryX=0.5;entryY=0;entryDx=0;entryDy=0;" parent="1" source="ow5rzcQxI6N4TbthBqpr-95" target="ow5rzcQxI6N4TbthBqpr-96" edge="1">
          <mxGeometry width="50" height="50" relative="1" as="geometry">
            <mxPoint x="1790" y="1149" as="sourcePoint" />
            <mxPoint x="1840" y="1099" as="targetPoint" />
          </mxGeometry>
        </mxCell>
        <mxCell id="XoREdaPtWnGIuF7Jhx0u-3" style="edgeStyle=none;curved=1;rounded=0;orthogonalLoop=1;jettySize=auto;html=1;entryX=0;entryY=0.5;entryDx=0;entryDy=0;fontSize=12;startSize=8;endSize=8;" edge="1" parent="1" source="XoREdaPtWnGIuF7Jhx0u-4" target="XoREdaPtWnGIuF7Jhx0u-7">
          <mxGeometry relative="1" as="geometry" />
        </mxCell>
        <mxCell id="XoREdaPtWnGIuF7Jhx0u-4" value="Mise à jour affichage" style="rounded=0;whiteSpace=wrap;html=1;" vertex="1" parent="1">
          <mxGeometry x="600" y="1761.5" width="120" height="60" as="geometry" />
        </mxCell>
        <mxCell id="XoREdaPtWnGIuF7Jhx0u-5" style="edgeStyle=orthogonalEdgeStyle;rounded=0;orthogonalLoop=1;jettySize=auto;html=1;exitX=0.5;exitY=1;exitDx=0;exitDy=0;entryX=0.5;entryY=0;entryDx=0;entryDy=0;" edge="1" parent="1" source="XoREdaPtWnGIuF7Jhx0u-7" target="XoREdaPtWnGIuF7Jhx0u-69">
          <mxGeometry relative="1" as="geometry">
            <mxPoint x="942" y="1920" as="targetPoint" />
          </mxGeometry>
        </mxCell>
        <mxCell id="XoREdaPtWnGIuF7Jhx0u-6" style="edgeStyle=orthogonalEdgeStyle;rounded=0;orthogonalLoop=1;jettySize=auto;html=1;entryX=0;entryY=0.5;entryDx=0;entryDy=0;" edge="1" parent="1" source="XoREdaPtWnGIuF7Jhx0u-7" target="XoREdaPtWnGIuF7Jhx0u-10">
          <mxGeometry relative="1" as="geometry">
            <mxPoint x="1097" y="1795" as="targetPoint" />
          </mxGeometry>
        </mxCell>
        <mxCell id="XoREdaPtWnGIuF7Jhx0u-7" value="si Pec12.inc = 1" style="rhombus;whiteSpace=wrap;html=1;" vertex="1" parent="1">
          <mxGeometry x="837" y="1700" width="210" height="190" as="geometry" />
        </mxCell>
        <mxCell id="XoREdaPtWnGIuF7Jhx0u-10" value="si Pec12.Dec= 1" style="rhombus;whiteSpace=wrap;html=1;" vertex="1" parent="1">
          <mxGeometry x="1338" y="1700" width="210" height="190" as="geometry" />
        </mxCell>
        <mxCell id="XoREdaPtWnGIuF7Jhx0u-12" style="edgeStyle=orthogonalEdgeStyle;rounded=0;orthogonalLoop=1;jettySize=auto;html=1;" edge="1" parent="1">
          <mxGeometry relative="1" as="geometry">
            <mxPoint x="1598" y="1795" as="targetPoint" />
            <mxPoint x="1548" y="1795" as="sourcePoint" />
          </mxGeometry>
        </mxCell>
        <mxCell id="XoREdaPtWnGIuF7Jhx0u-13" value="si&amp;nbsp;Pec12.OK= 1" style="rhombus;whiteSpace=wrap;html=1;" vertex="1" parent="1">
          <mxGeometry x="1598" y="1700" width="210" height="190" as="geometry" />
        </mxCell>
        <mxCell id="XoREdaPtWnGIuF7Jhx0u-14" value="e_FreqSet&amp;nbsp;= e_FreqSet_Copy" style="rounded=0;whiteSpace=wrap;html=1;" vertex="1" parent="1">
          <mxGeometry x="1643" y="1920" width="120" height="60" as="geometry" />
        </mxCell>
        <mxCell id="XoREdaPtWnGIuF7Jhx0u-15" value="" style="endArrow=classic;html=1;rounded=0;exitX=0.5;exitY=1;exitDx=0;exitDy=0;entryX=0.5;entryY=0;entryDx=0;entryDy=0;" edge="1" parent="1" source="XoREdaPtWnGIuF7Jhx0u-10" target="XoREdaPtWnGIuF7Jhx0u-72">
          <mxGeometry width="50" height="50" relative="1" as="geometry">
            <mxPoint x="1648" y="1960" as="sourcePoint" />
            <mxPoint x="1443" y="1930" as="targetPoint" />
          </mxGeometry>
        </mxCell>
        <mxCell id="XoREdaPtWnGIuF7Jhx0u-16" value="" style="endArrow=classic;html=1;rounded=0;exitX=0.5;exitY=1;exitDx=0;exitDy=0;entryX=0.5;entryY=0;entryDx=0;entryDy=0;" edge="1" parent="1" source="XoREdaPtWnGIuF7Jhx0u-13" target="XoREdaPtWnGIuF7Jhx0u-14">
          <mxGeometry width="50" height="50" relative="1" as="geometry">
            <mxPoint x="1648" y="1960" as="sourcePoint" />
            <mxPoint x="1698" y="1910" as="targetPoint" />
          </mxGeometry>
        </mxCell>
        <mxCell id="XoREdaPtWnGIuF7Jhx0u-17" value="" style="endArrow=classic;html=1;rounded=0;fontSize=12;startSize=8;endSize=8;curved=1;exitX=0.5;exitY=1;exitDx=0;exitDy=0;entryX=0.5;entryY=0;entryDx=0;entryDy=0;" edge="1" parent="1" source="ow5rzcQxI6N4TbthBqpr-54" target="ow5rzcQxI6N4TbthBqpr-60">
          <mxGeometry width="50" height="50" relative="1" as="geometry">
            <mxPoint x="1510" y="770" as="sourcePoint" />
            <mxPoint x="1560" y="720" as="targetPoint" />
          </mxGeometry>
        </mxCell>
        <mxCell id="XoREdaPtWnGIuF7Jhx0u-19" value="" style="endArrow=classic;html=1;rounded=0;fontSize=12;startSize=8;endSize=8;curved=1;exitX=0.5;exitY=1;exitDx=0;exitDy=0;entryX=0.5;entryY=0;entryDx=0;entryDy=0;" edge="1" parent="1" target="ow5rzcQxI6N4TbthBqpr-66">
          <mxGeometry width="50" height="50" relative="1" as="geometry">
            <mxPoint x="1485" y="530" as="sourcePoint" />
            <mxPoint x="1560" y="495.5" as="targetPoint" />
          </mxGeometry>
        </mxCell>
        <mxCell id="XoREdaPtWnGIuF7Jhx0u-25" style="edgeStyle=orthogonalEdgeStyle;rounded=0;orthogonalLoop=1;jettySize=auto;html=1;" edge="1" parent="1">
          <mxGeometry relative="1" as="geometry">
            <mxPoint x="2000" y="985" as="targetPoint" />
            <mxPoint x="1950" y="985" as="sourcePoint" />
          </mxGeometry>
        </mxCell>
        <mxCell id="XoREdaPtWnGIuF7Jhx0u-26" value="si&amp;nbsp;Pec12.ESC= 1" style="rhombus;whiteSpace=wrap;html=1;" vertex="1" parent="1">
          <mxGeometry x="2000" y="890" width="210" height="190" as="geometry" />
        </mxCell>
        <mxCell id="XoREdaPtWnGIuF7Jhx0u-27" value="s_menu = e_Slector" style="rounded=0;whiteSpace=wrap;html=1;" vertex="1" parent="1">
          <mxGeometry x="2045" y="1110" width="120" height="60" as="geometry" />
        </mxCell>
        <mxCell id="XoREdaPtWnGIuF7Jhx0u-28" value="" style="endArrow=classic;html=1;rounded=0;exitX=0.5;exitY=1;exitDx=0;exitDy=0;entryX=0.5;entryY=0;entryDx=0;entryDy=0;" edge="1" parent="1" source="XoREdaPtWnGIuF7Jhx0u-26" target="XoREdaPtWnGIuF7Jhx0u-27">
          <mxGeometry width="50" height="50" relative="1" as="geometry">
            <mxPoint x="2050" y="1150" as="sourcePoint" />
            <mxPoint x="2100" y="1100" as="targetPoint" />
          </mxGeometry>
        </mxCell>
        <mxCell id="XoREdaPtWnGIuF7Jhx0u-33" style="edgeStyle=orthogonalEdgeStyle;rounded=0;orthogonalLoop=1;jettySize=auto;html=1;" edge="1" parent="1">
          <mxGeometry relative="1" as="geometry">
            <mxPoint x="1858" y="1795" as="targetPoint" />
            <mxPoint x="1808" y="1795" as="sourcePoint" />
          </mxGeometry>
        </mxCell>
        <mxCell id="XoREdaPtWnGIuF7Jhx0u-34" value="si&amp;nbsp;Pec12.ESC= 1" style="rhombus;whiteSpace=wrap;html=1;" vertex="1" parent="1">
          <mxGeometry x="1858" y="1700" width="210" height="190" as="geometry" />
        </mxCell>
        <mxCell id="XoREdaPtWnGIuF7Jhx0u-35" value="s_menu = e_Slector" style="rounded=0;whiteSpace=wrap;html=1;" vertex="1" parent="1">
          <mxGeometry x="1903" y="1920" width="120" height="60" as="geometry" />
        </mxCell>
        <mxCell id="XoREdaPtWnGIuF7Jhx0u-36" value="" style="endArrow=classic;html=1;rounded=0;exitX=0.5;exitY=1;exitDx=0;exitDy=0;entryX=0.5;entryY=0;entryDx=0;entryDy=0;" edge="1" parent="1" source="XoREdaPtWnGIuF7Jhx0u-34" target="XoREdaPtWnGIuF7Jhx0u-35">
          <mxGeometry width="50" height="50" relative="1" as="geometry">
            <mxPoint x="1908" y="1960" as="sourcePoint" />
            <mxPoint x="1958" y="1910" as="targetPoint" />
          </mxGeometry>
        </mxCell>
        <mxCell id="XoREdaPtWnGIuF7Jhx0u-37" style="edgeStyle=none;curved=1;rounded=0;orthogonalLoop=1;jettySize=auto;html=1;entryX=0;entryY=0.5;entryDx=0;entryDy=0;fontSize=12;startSize=8;endSize=8;" edge="1" parent="1" source="XoREdaPtWnGIuF7Jhx0u-38" target="XoREdaPtWnGIuF7Jhx0u-41">
          <mxGeometry relative="1" as="geometry" />
        </mxCell>
        <mxCell id="XoREdaPtWnGIuF7Jhx0u-38" value="Mise à jour affichage" style="rounded=0;whiteSpace=wrap;html=1;" vertex="1" parent="1">
          <mxGeometry x="600" y="2540.5" width="120" height="60" as="geometry" />
        </mxCell>
        <mxCell id="XoREdaPtWnGIuF7Jhx0u-40" style="edgeStyle=orthogonalEdgeStyle;rounded=0;orthogonalLoop=1;jettySize=auto;html=1;entryX=0;entryY=0.5;entryDx=0;entryDy=0;" edge="1" parent="1" source="XoREdaPtWnGIuF7Jhx0u-41" target="XoREdaPtWnGIuF7Jhx0u-44">
          <mxGeometry relative="1" as="geometry">
            <mxPoint x="1097" y="2574" as="targetPoint" />
          </mxGeometry>
        </mxCell>
        <mxCell id="XoREdaPtWnGIuF7Jhx0u-41" value="si Pec12.inc = 1" style="rhombus;whiteSpace=wrap;html=1;" vertex="1" parent="1">
          <mxGeometry x="837" y="2479" width="210" height="190" as="geometry" />
        </mxCell>
        <mxCell id="XoREdaPtWnGIuF7Jhx0u-44" value="si Pec12.Dec= 1" style="rhombus;whiteSpace=wrap;html=1;" vertex="1" parent="1">
          <mxGeometry x="1356" y="2479" width="210" height="190" as="geometry" />
        </mxCell>
        <mxCell id="XoREdaPtWnGIuF7Jhx0u-46" style="edgeStyle=orthogonalEdgeStyle;rounded=0;orthogonalLoop=1;jettySize=auto;html=1;" edge="1" parent="1">
          <mxGeometry relative="1" as="geometry">
            <mxPoint x="1597" y="2574" as="targetPoint" />
            <mxPoint x="1566" y="2574" as="sourcePoint" />
          </mxGeometry>
        </mxCell>
        <mxCell id="XoREdaPtWnGIuF7Jhx0u-47" value="si&amp;nbsp;Pec12.OK= 1" style="rhombus;whiteSpace=wrap;html=1;" vertex="1" parent="1">
          <mxGeometry x="1597" y="2479" width="210" height="190" as="geometry" />
        </mxCell>
        <mxCell id="XoREdaPtWnGIuF7Jhx0u-48" value="e_AmplSet= e_AmplSet_copy" style="rounded=0;whiteSpace=wrap;html=1;" vertex="1" parent="1">
          <mxGeometry x="1642" y="2699" width="120" height="60" as="geometry" />
        </mxCell>
        <mxCell id="XoREdaPtWnGIuF7Jhx0u-50" value="" style="endArrow=classic;html=1;rounded=0;exitX=0.5;exitY=1;exitDx=0;exitDy=0;entryX=0.5;entryY=0;entryDx=0;entryDy=0;" edge="1" parent="1" source="XoREdaPtWnGIuF7Jhx0u-47" target="XoREdaPtWnGIuF7Jhx0u-48">
          <mxGeometry width="50" height="50" relative="1" as="geometry">
            <mxPoint x="1647" y="2739" as="sourcePoint" />
            <mxPoint x="1697" y="2689" as="targetPoint" />
          </mxGeometry>
        </mxCell>
        <mxCell id="XoREdaPtWnGIuF7Jhx0u-51" style="edgeStyle=orthogonalEdgeStyle;rounded=0;orthogonalLoop=1;jettySize=auto;html=1;" edge="1" parent="1">
          <mxGeometry relative="1" as="geometry">
            <mxPoint x="1857" y="2574" as="targetPoint" />
            <mxPoint x="1807" y="2574" as="sourcePoint" />
          </mxGeometry>
        </mxCell>
        <mxCell id="XoREdaPtWnGIuF7Jhx0u-52" value="si&amp;nbsp;Pec12.ESC= 1" style="rhombus;whiteSpace=wrap;html=1;" vertex="1" parent="1">
          <mxGeometry x="1857" y="2479" width="210" height="190" as="geometry" />
        </mxCell>
        <mxCell id="XoREdaPtWnGIuF7Jhx0u-53" value="s_menu = e_Slector" style="rounded=0;whiteSpace=wrap;html=1;" vertex="1" parent="1">
          <mxGeometry x="1902" y="2699" width="120" height="60" as="geometry" />
        </mxCell>
        <mxCell id="XoREdaPtWnGIuF7Jhx0u-54" value="" style="endArrow=classic;html=1;rounded=0;exitX=0.5;exitY=1;exitDx=0;exitDy=0;entryX=0.5;entryY=0;entryDx=0;entryDy=0;" edge="1" parent="1" source="XoREdaPtWnGIuF7Jhx0u-52" target="XoREdaPtWnGIuF7Jhx0u-53">
          <mxGeometry width="50" height="50" relative="1" as="geometry">
            <mxPoint x="1907" y="2739" as="sourcePoint" />
            <mxPoint x="1957" y="2689" as="targetPoint" />
          </mxGeometry>
        </mxCell>
        <mxCell id="XoREdaPtWnGIuF7Jhx0u-56" value="si e_FormeSignal_Copy&amp;nbsp;&amp;gt; max&amp;nbsp;" style="rhombus;whiteSpace=wrap;html=1;" vertex="1" parent="1">
          <mxGeometry x="827" y="1120" width="210" height="190" as="geometry" />
        </mxCell>
        <mxCell id="XoREdaPtWnGIuF7Jhx0u-57" value="e_FormeSignal_Copy = 0" style="rounded=0;whiteSpace=wrap;html=1;" vertex="1" parent="1">
          <mxGeometry x="872" y="1350" width="120" height="60" as="geometry" />
        </mxCell>
        <mxCell id="XoREdaPtWnGIuF7Jhx0u-60" value="e_FormeSignal_Copy&lt;br&gt;&amp;nbsp;décrément" style="rounded=0;whiteSpace=wrap;html=1;" vertex="1" parent="1">
          <mxGeometry x="1600" y="1176" width="120" height="60" as="geometry" />
        </mxCell>
        <mxCell id="XoREdaPtWnGIuF7Jhx0u-61" value="si e_FormeSignal_Copy == min&amp;nbsp;" style="rhombus;whiteSpace=wrap;html=1;" vertex="1" parent="1">
          <mxGeometry x="1330" y="1111" width="210" height="190" as="geometry" />
        </mxCell>
        <mxCell id="XoREdaPtWnGIuF7Jhx0u-62" value="e_FormeSignal_Copy = MAX" style="rounded=0;whiteSpace=wrap;html=1;" vertex="1" parent="1">
          <mxGeometry x="1375" y="1340" width="120" height="60" as="geometry" />
        </mxCell>
        <mxCell id="XoREdaPtWnGIuF7Jhx0u-63" value="" style="endArrow=classic;html=1;rounded=0;fontSize=12;startSize=8;endSize=8;curved=1;exitX=0.5;exitY=1;exitDx=0;exitDy=0;entryX=0.5;entryY=0;entryDx=0;entryDy=0;" edge="1" parent="1" source="ow5rzcQxI6N4TbthBqpr-89" target="XoREdaPtWnGIuF7Jhx0u-56">
          <mxGeometry width="50" height="50" relative="1" as="geometry">
            <mxPoint x="1380" y="1380" as="sourcePoint" />
            <mxPoint x="1430" y="1330" as="targetPoint" />
          </mxGeometry>
        </mxCell>
        <mxCell id="XoREdaPtWnGIuF7Jhx0u-64" value="" style="endArrow=classic;html=1;rounded=0;fontSize=12;startSize=8;endSize=8;curved=1;exitX=1;exitY=0.5;exitDx=0;exitDy=0;entryX=0;entryY=0.5;entryDx=0;entryDy=0;" edge="1" parent="1" source="XoREdaPtWnGIuF7Jhx0u-56" target="ow5rzcQxI6N4TbthBqpr-91">
          <mxGeometry width="50" height="50" relative="1" as="geometry">
            <mxPoint x="1110" y="1340" as="sourcePoint" />
            <mxPoint x="1160" y="1290" as="targetPoint" />
          </mxGeometry>
        </mxCell>
        <mxCell id="XoREdaPtWnGIuF7Jhx0u-65" value="" style="endArrow=classic;html=1;rounded=0;fontSize=12;startSize=8;endSize=8;curved=1;exitX=0.5;exitY=1;exitDx=0;exitDy=0;entryX=0.5;entryY=0;entryDx=0;entryDy=0;" edge="1" parent="1" source="XoREdaPtWnGIuF7Jhx0u-56" target="XoREdaPtWnGIuF7Jhx0u-57">
          <mxGeometry width="50" height="50" relative="1" as="geometry">
            <mxPoint x="1050" y="1360" as="sourcePoint" />
            <mxPoint x="1100" y="1310" as="targetPoint" />
          </mxGeometry>
        </mxCell>
        <mxCell id="XoREdaPtWnGIuF7Jhx0u-66" value="" style="endArrow=classic;html=1;rounded=0;fontSize=12;startSize=8;endSize=8;curved=1;exitX=1;exitY=0.5;exitDx=0;exitDy=0;entryX=0;entryY=0.5;entryDx=0;entryDy=0;" edge="1" parent="1" source="XoREdaPtWnGIuF7Jhx0u-61" target="XoREdaPtWnGIuF7Jhx0u-60">
          <mxGeometry width="50" height="50" relative="1" as="geometry">
            <mxPoint x="1760" y="1320" as="sourcePoint" />
            <mxPoint x="1810" y="1270" as="targetPoint" />
          </mxGeometry>
        </mxCell>
        <mxCell id="XoREdaPtWnGIuF7Jhx0u-67" value="" style="endArrow=classic;html=1;rounded=0;fontSize=12;startSize=8;endSize=8;curved=1;exitX=0.5;exitY=1;exitDx=0;exitDy=0;entryX=0.5;entryY=0;entryDx=0;entryDy=0;" edge="1" parent="1" source="XoREdaPtWnGIuF7Jhx0u-61" target="XoREdaPtWnGIuF7Jhx0u-62">
          <mxGeometry width="50" height="50" relative="1" as="geometry">
            <mxPoint x="1760" y="1320" as="sourcePoint" />
            <mxPoint x="1810" y="1270" as="targetPoint" />
          </mxGeometry>
        </mxCell>
        <mxCell id="XoREdaPtWnGIuF7Jhx0u-69" value="si e_FormeSignal_Copy&amp;nbsp;&amp;gt; max&amp;nbsp;" style="rhombus;whiteSpace=wrap;html=1;" vertex="1" parent="1">
          <mxGeometry x="837" y="1940" width="210" height="190" as="geometry" />
        </mxCell>
        <mxCell id="XoREdaPtWnGIuF7Jhx0u-70" value="e_FreqSet_Copy&amp;nbsp;= MIN" style="rounded=0;whiteSpace=wrap;html=1;" vertex="1" parent="1">
          <mxGeometry x="882" y="2170" width="120" height="60" as="geometry" />
        </mxCell>
        <mxCell id="XoREdaPtWnGIuF7Jhx0u-72" value="si e_FormeSignal_Copy == min&amp;nbsp;" style="rhombus;whiteSpace=wrap;html=1;" vertex="1" parent="1">
          <mxGeometry x="1338" y="1940" width="210" height="190" as="geometry" />
        </mxCell>
        <mxCell id="XoREdaPtWnGIuF7Jhx0u-73" value="e_FormeSignal_Copy = MAX" style="rounded=0;whiteSpace=wrap;html=1;" vertex="1" parent="1">
          <mxGeometry x="1383" y="2159" width="120" height="60" as="geometry" />
        </mxCell>
        <mxCell id="XoREdaPtWnGIuF7Jhx0u-74" value="" style="endArrow=classic;html=1;rounded=0;fontSize=12;startSize=8;endSize=8;curved=1;exitX=1;exitY=0.5;exitDx=0;exitDy=0;entryX=0;entryY=0.5;entryDx=0;entryDy=0;" edge="1" parent="1" source="XoREdaPtWnGIuF7Jhx0u-69">
          <mxGeometry width="50" height="50" relative="1" as="geometry">
            <mxPoint x="1120" y="2160" as="sourcePoint" />
            <mxPoint x="1090" y="2035" as="targetPoint" />
          </mxGeometry>
        </mxCell>
        <mxCell id="XoREdaPtWnGIuF7Jhx0u-75" value="" style="endArrow=classic;html=1;rounded=0;fontSize=12;startSize=8;endSize=8;curved=1;exitX=0.5;exitY=1;exitDx=0;exitDy=0;entryX=0.5;entryY=0;entryDx=0;entryDy=0;" edge="1" parent="1" source="XoREdaPtWnGIuF7Jhx0u-69" target="XoREdaPtWnGIuF7Jhx0u-70">
          <mxGeometry width="50" height="50" relative="1" as="geometry">
            <mxPoint x="1060" y="2180" as="sourcePoint" />
            <mxPoint x="1110" y="2130" as="targetPoint" />
          </mxGeometry>
        </mxCell>
        <mxCell id="XoREdaPtWnGIuF7Jhx0u-76" value="" style="endArrow=classic;html=1;rounded=0;fontSize=12;startSize=8;endSize=8;curved=1;exitX=1;exitY=0.5;exitDx=0;exitDy=0;entryX=0;entryY=0.5;entryDx=0;entryDy=0;" edge="1" parent="1">
          <mxGeometry width="50" height="50" relative="1" as="geometry">
            <mxPoint x="1548" y="2035" as="sourcePoint" />
            <mxPoint x="1608" y="2035" as="targetPoint" />
          </mxGeometry>
        </mxCell>
        <mxCell id="XoREdaPtWnGIuF7Jhx0u-77" value="" style="endArrow=classic;html=1;rounded=0;fontSize=12;startSize=8;endSize=8;curved=1;entryX=0.5;entryY=0;entryDx=0;entryDy=0;exitX=0.5;exitY=1;exitDx=0;exitDy=0;" edge="1" parent="1" source="XoREdaPtWnGIuF7Jhx0u-72" target="XoREdaPtWnGIuF7Jhx0u-73">
          <mxGeometry width="50" height="50" relative="1" as="geometry">
            <mxPoint x="1443" y="2140" as="sourcePoint" />
            <mxPoint x="1818" y="2089" as="targetPoint" />
          </mxGeometry>
        </mxCell>
        <mxCell id="XoREdaPtWnGIuF7Jhx0u-81" value="e_FreqSet_Copy incrément par 20" style="rounded=0;whiteSpace=wrap;html=1;" vertex="1" parent="1">
          <mxGeometry x="1090" y="2005" width="120" height="60" as="geometry" />
        </mxCell>
        <mxCell id="XoREdaPtWnGIuF7Jhx0u-82" value="e_FreqSet_Copy&lt;br&gt;&amp;nbsp;décrément par 20" style="rounded=0;whiteSpace=wrap;html=1;" vertex="1" parent="1">
          <mxGeometry x="1610" y="2005" width="116" height="60" as="geometry" />
        </mxCell>
        <mxCell id="XoREdaPtWnGIuF7Jhx0u-83" style="edgeStyle=orthogonalEdgeStyle;rounded=0;orthogonalLoop=1;jettySize=auto;html=1;exitX=0.5;exitY=1;exitDx=0;exitDy=0;entryX=0.5;entryY=0;entryDx=0;entryDy=0;" edge="1" parent="1" target="XoREdaPtWnGIuF7Jhx0u-85">
          <mxGeometry relative="1" as="geometry">
            <mxPoint x="941" y="2699" as="targetPoint" />
            <mxPoint x="941" y="2669" as="sourcePoint" />
          </mxGeometry>
        </mxCell>
        <mxCell id="XoREdaPtWnGIuF7Jhx0u-84" value="" style="endArrow=classic;html=1;rounded=0;exitX=0.5;exitY=1;exitDx=0;exitDy=0;entryX=0.5;entryY=0;entryDx=0;entryDy=0;" edge="1" parent="1" target="XoREdaPtWnGIuF7Jhx0u-87">
          <mxGeometry width="50" height="50" relative="1" as="geometry">
            <mxPoint x="1461" y="2669" as="sourcePoint" />
            <mxPoint x="1461" y="2709" as="targetPoint" />
          </mxGeometry>
        </mxCell>
        <mxCell id="XoREdaPtWnGIuF7Jhx0u-85" value="si e_AmplSet_Copy &amp;gt; max&amp;nbsp;" style="rhombus;whiteSpace=wrap;html=1;" vertex="1" parent="1">
          <mxGeometry x="836" y="2719" width="210" height="190" as="geometry" />
        </mxCell>
        <mxCell id="XoREdaPtWnGIuF7Jhx0u-86" value="e_AmplSet_Copy= MIN" style="rounded=0;whiteSpace=wrap;html=1;" vertex="1" parent="1">
          <mxGeometry x="881" y="2949" width="120" height="60" as="geometry" />
        </mxCell>
        <mxCell id="XoREdaPtWnGIuF7Jhx0u-95" value="" style="edgeStyle=none;curved=1;rounded=0;orthogonalLoop=1;jettySize=auto;html=1;fontSize=12;startSize=8;endSize=8;" edge="1" parent="1" source="XoREdaPtWnGIuF7Jhx0u-87" target="XoREdaPtWnGIuF7Jhx0u-88">
          <mxGeometry relative="1" as="geometry" />
        </mxCell>
        <mxCell id="XoREdaPtWnGIuF7Jhx0u-87" value="si e_FormeSignal_Copy == min&amp;nbsp;" style="rhombus;whiteSpace=wrap;html=1;" vertex="1" parent="1">
          <mxGeometry x="1356" y="2719" width="210" height="190" as="geometry" />
        </mxCell>
        <mxCell id="XoREdaPtWnGIuF7Jhx0u-88" value="e_AmplSet_Copy= MAX" style="rounded=0;whiteSpace=wrap;html=1;" vertex="1" parent="1">
          <mxGeometry x="1401" y="2938" width="120" height="60" as="geometry" />
        </mxCell>
        <mxCell id="XoREdaPtWnGIuF7Jhx0u-89" value="" style="endArrow=classic;html=1;rounded=0;fontSize=12;startSize=8;endSize=8;curved=1;exitX=1;exitY=0.5;exitDx=0;exitDy=0;entryX=0;entryY=0.5;entryDx=0;entryDy=0;" edge="1" parent="1" source="XoREdaPtWnGIuF7Jhx0u-85">
          <mxGeometry width="50" height="50" relative="1" as="geometry">
            <mxPoint x="1119" y="2939" as="sourcePoint" />
            <mxPoint x="1089" y="2814" as="targetPoint" />
          </mxGeometry>
        </mxCell>
        <mxCell id="XoREdaPtWnGIuF7Jhx0u-90" value="" style="endArrow=classic;html=1;rounded=0;fontSize=12;startSize=8;endSize=8;curved=1;exitX=0.5;exitY=1;exitDx=0;exitDy=0;entryX=0.5;entryY=0;entryDx=0;entryDy=0;" edge="1" parent="1" source="XoREdaPtWnGIuF7Jhx0u-85" target="XoREdaPtWnGIuF7Jhx0u-86">
          <mxGeometry width="50" height="50" relative="1" as="geometry">
            <mxPoint x="1059" y="2959" as="sourcePoint" />
            <mxPoint x="1109" y="2909" as="targetPoint" />
          </mxGeometry>
        </mxCell>
        <mxCell id="XoREdaPtWnGIuF7Jhx0u-91" value="" style="endArrow=classic;html=1;rounded=0;fontSize=12;startSize=8;endSize=8;curved=1;entryX=0.5;entryY=0;entryDx=0;entryDy=0;" edge="1" parent="1" target="XoREdaPtWnGIuF7Jhx0u-88">
          <mxGeometry width="50" height="50" relative="1" as="geometry">
            <mxPoint x="1461" y="2910" as="sourcePoint" />
            <mxPoint x="1836" y="2868" as="targetPoint" />
          </mxGeometry>
        </mxCell>
        <mxCell id="XoREdaPtWnGIuF7Jhx0u-93" value="e_AmplSet_copy&lt;br&gt;incrément par 100" style="rounded=0;whiteSpace=wrap;html=1;" vertex="1" parent="1">
          <mxGeometry x="1086" y="2784" width="120" height="60" as="geometry" />
        </mxCell>
        <mxCell id="XoREdaPtWnGIuF7Jhx0u-94" value="e_AmplSet_copy&lt;br&gt;&amp;nbsp;décrément par 100" style="rounded=0;whiteSpace=wrap;html=1;" vertex="1" parent="1">
          <mxGeometry x="1606" y="2784" width="120" height="60" as="geometry" />
        </mxCell>
        <mxCell id="XoREdaPtWnGIuF7Jhx0u-96" value="" style="endArrow=classic;html=1;rounded=0;fontSize=12;startSize=8;endSize=8;curved=1;exitX=1;exitY=0.5;exitDx=0;exitDy=0;entryX=0;entryY=0.5;entryDx=0;entryDy=0;" edge="1" parent="1" source="XoREdaPtWnGIuF7Jhx0u-223" target="XoREdaPtWnGIuF7Jhx0u-94">
          <mxGeometry width="50" height="50" relative="1" as="geometry">
            <mxPoint x="1056" y="2824" as="sourcePoint" />
            <mxPoint x="1099" y="2824" as="targetPoint" />
          </mxGeometry>
        </mxCell>
        <mxCell id="XoREdaPtWnGIuF7Jhx0u-97" value="si S9cntPressed = 500ms&amp;nbsp;" style="rhombus;whiteSpace=wrap;html=1;" vertex="1" parent="1">
          <mxGeometry x="858" y="3795" width="210" height="190" as="geometry" />
        </mxCell>
        <mxCell id="XoREdaPtWnGIuF7Jhx0u-98" style="edgeStyle=none;curved=1;rounded=0;orthogonalLoop=1;jettySize=auto;html=1;entryX=0;entryY=0.5;entryDx=0;entryDy=0;fontSize=12;startSize=8;endSize=8;" edge="1" parent="1" source="XoREdaPtWnGIuF7Jhx0u-99" target="XoREdaPtWnGIuF7Jhx0u-101">
          <mxGeometry relative="1" as="geometry" />
        </mxCell>
        <mxCell id="XoREdaPtWnGIuF7Jhx0u-99" value="Mise à jour affichage" style="rounded=0;whiteSpace=wrap;html=1;" vertex="1" parent="1">
          <mxGeometry x="607" y="3121.5" width="120" height="60" as="geometry" />
        </mxCell>
        <mxCell id="XoREdaPtWnGIuF7Jhx0u-100" style="edgeStyle=orthogonalEdgeStyle;rounded=0;orthogonalLoop=1;jettySize=auto;html=1;entryX=0;entryY=0.5;entryDx=0;entryDy=0;" edge="1" parent="1" source="XoREdaPtWnGIuF7Jhx0u-101" target="XoREdaPtWnGIuF7Jhx0u-102">
          <mxGeometry relative="1" as="geometry">
            <mxPoint x="1104" y="3155" as="targetPoint" />
          </mxGeometry>
        </mxCell>
        <mxCell id="XoREdaPtWnGIuF7Jhx0u-101" value="si Pec12.inc = 1" style="rhombus;whiteSpace=wrap;html=1;" vertex="1" parent="1">
          <mxGeometry x="844" y="3060" width="210" height="190" as="geometry" />
        </mxCell>
        <mxCell id="XoREdaPtWnGIuF7Jhx0u-102" value="si Pec12.Dec= 1" style="rhombus;whiteSpace=wrap;html=1;" vertex="1" parent="1">
          <mxGeometry x="1363" y="3060" width="210" height="190" as="geometry" />
        </mxCell>
        <mxCell id="XoREdaPtWnGIuF7Jhx0u-103" style="edgeStyle=orthogonalEdgeStyle;rounded=0;orthogonalLoop=1;jettySize=auto;html=1;" edge="1" parent="1">
          <mxGeometry relative="1" as="geometry">
            <mxPoint x="1604" y="3155" as="targetPoint" />
            <mxPoint x="1573" y="3155" as="sourcePoint" />
          </mxGeometry>
        </mxCell>
        <mxCell id="XoREdaPtWnGIuF7Jhx0u-104" value="si&amp;nbsp;Pec12.OK= 1" style="rhombus;whiteSpace=wrap;html=1;" vertex="1" parent="1">
          <mxGeometry x="1604" y="3060" width="210" height="190" as="geometry" />
        </mxCell>
        <mxCell id="XoREdaPtWnGIuF7Jhx0u-105" value="e_OffSet7= e_OffSet7_Copy" style="rounded=0;whiteSpace=wrap;html=1;" vertex="1" parent="1">
          <mxGeometry x="1649" y="3280" width="120" height="60" as="geometry" />
        </mxCell>
        <mxCell id="XoREdaPtWnGIuF7Jhx0u-106" value="" style="endArrow=classic;html=1;rounded=0;exitX=0.5;exitY=1;exitDx=0;exitDy=0;entryX=0.5;entryY=0;entryDx=0;entryDy=0;" edge="1" parent="1" source="XoREdaPtWnGIuF7Jhx0u-104" target="XoREdaPtWnGIuF7Jhx0u-105">
          <mxGeometry width="50" height="50" relative="1" as="geometry">
            <mxPoint x="1654" y="3320" as="sourcePoint" />
            <mxPoint x="1704" y="3270" as="targetPoint" />
          </mxGeometry>
        </mxCell>
        <mxCell id="XoREdaPtWnGIuF7Jhx0u-107" style="edgeStyle=orthogonalEdgeStyle;rounded=0;orthogonalLoop=1;jettySize=auto;html=1;" edge="1" parent="1">
          <mxGeometry relative="1" as="geometry">
            <mxPoint x="1864" y="3155" as="targetPoint" />
            <mxPoint x="1814" y="3155" as="sourcePoint" />
          </mxGeometry>
        </mxCell>
        <mxCell id="XoREdaPtWnGIuF7Jhx0u-108" value="si&amp;nbsp;Pec12.ESC= 1" style="rhombus;whiteSpace=wrap;html=1;" vertex="1" parent="1">
          <mxGeometry x="1864" y="3060" width="210" height="190" as="geometry" />
        </mxCell>
        <mxCell id="XoREdaPtWnGIuF7Jhx0u-109" value="s_menu = e_Slector" style="rounded=0;whiteSpace=wrap;html=1;" vertex="1" parent="1">
          <mxGeometry x="1909" y="3280" width="120" height="60" as="geometry" />
        </mxCell>
        <mxCell id="XoREdaPtWnGIuF7Jhx0u-110" value="" style="endArrow=classic;html=1;rounded=0;exitX=0.5;exitY=1;exitDx=0;exitDy=0;entryX=0.5;entryY=0;entryDx=0;entryDy=0;" edge="1" parent="1" source="XoREdaPtWnGIuF7Jhx0u-108" target="XoREdaPtWnGIuF7Jhx0u-109">
          <mxGeometry width="50" height="50" relative="1" as="geometry">
            <mxPoint x="1914" y="3320" as="sourcePoint" />
            <mxPoint x="1964" y="3270" as="targetPoint" />
          </mxGeometry>
        </mxCell>
        <mxCell id="XoREdaPtWnGIuF7Jhx0u-111" style="edgeStyle=orthogonalEdgeStyle;rounded=0;orthogonalLoop=1;jettySize=auto;html=1;exitX=0.5;exitY=1;exitDx=0;exitDy=0;entryX=0.5;entryY=0;entryDx=0;entryDy=0;" edge="1" parent="1" target="XoREdaPtWnGIuF7Jhx0u-113">
          <mxGeometry relative="1" as="geometry">
            <mxPoint x="948" y="3280" as="targetPoint" />
            <mxPoint x="948" y="3250" as="sourcePoint" />
          </mxGeometry>
        </mxCell>
        <mxCell id="XoREdaPtWnGIuF7Jhx0u-112" value="" style="endArrow=classic;html=1;rounded=0;exitX=0.5;exitY=1;exitDx=0;exitDy=0;entryX=0.5;entryY=0;entryDx=0;entryDy=0;" edge="1" parent="1" target="XoREdaPtWnGIuF7Jhx0u-116">
          <mxGeometry width="50" height="50" relative="1" as="geometry">
            <mxPoint x="1468" y="3250" as="sourcePoint" />
            <mxPoint x="1468" y="3290" as="targetPoint" />
          </mxGeometry>
        </mxCell>
        <mxCell id="XoREdaPtWnGIuF7Jhx0u-113" value="si e_OffSet7_Copy&amp;gt;= max&amp;nbsp;" style="rhombus;whiteSpace=wrap;html=1;" vertex="1" parent="1">
          <mxGeometry x="843" y="3300" width="210" height="190" as="geometry" />
        </mxCell>
        <mxCell id="XoREdaPtWnGIuF7Jhx0u-114" value="e_OffSet7_Copy= MAX" style="rounded=0;whiteSpace=wrap;html=1;" vertex="1" parent="1">
          <mxGeometry x="888" y="3530" width="120" height="60" as="geometry" />
        </mxCell>
        <mxCell id="XoREdaPtWnGIuF7Jhx0u-115" value="" style="edgeStyle=none;curved=1;rounded=0;orthogonalLoop=1;jettySize=auto;html=1;fontSize=12;startSize=8;endSize=8;" edge="1" parent="1" source="XoREdaPtWnGIuF7Jhx0u-116" target="XoREdaPtWnGIuF7Jhx0u-117">
          <mxGeometry relative="1" as="geometry" />
        </mxCell>
        <mxCell id="XoREdaPtWnGIuF7Jhx0u-116" value="si e_OffSet7_Copy== min&amp;nbsp;" style="rhombus;whiteSpace=wrap;html=1;" vertex="1" parent="1">
          <mxGeometry x="1363" y="3300" width="210" height="190" as="geometry" />
        </mxCell>
        <mxCell id="XoREdaPtWnGIuF7Jhx0u-117" value="e_OffSet7_Copy= MIN" style="rounded=0;whiteSpace=wrap;html=1;" vertex="1" parent="1">
          <mxGeometry x="1408" y="3519" width="120" height="60" as="geometry" />
        </mxCell>
        <mxCell id="XoREdaPtWnGIuF7Jhx0u-118" value="" style="endArrow=classic;html=1;rounded=0;fontSize=12;startSize=8;endSize=8;curved=1;exitX=1;exitY=0.5;exitDx=0;exitDy=0;entryX=0;entryY=0.5;entryDx=0;entryDy=0;" edge="1" parent="1" source="XoREdaPtWnGIuF7Jhx0u-113">
          <mxGeometry width="50" height="50" relative="1" as="geometry">
            <mxPoint x="1126" y="3520" as="sourcePoint" />
            <mxPoint x="1096" y="3395" as="targetPoint" />
          </mxGeometry>
        </mxCell>
        <mxCell id="XoREdaPtWnGIuF7Jhx0u-119" value="" style="endArrow=classic;html=1;rounded=0;fontSize=12;startSize=8;endSize=8;curved=1;exitX=0.5;exitY=1;exitDx=0;exitDy=0;entryX=0.5;entryY=0;entryDx=0;entryDy=0;" edge="1" parent="1" source="XoREdaPtWnGIuF7Jhx0u-113" target="XoREdaPtWnGIuF7Jhx0u-114">
          <mxGeometry width="50" height="50" relative="1" as="geometry">
            <mxPoint x="1066" y="3540" as="sourcePoint" />
            <mxPoint x="1116" y="3490" as="targetPoint" />
          </mxGeometry>
        </mxCell>
        <mxCell id="XoREdaPtWnGIuF7Jhx0u-120" value="" style="endArrow=classic;html=1;rounded=0;fontSize=12;startSize=8;endSize=8;curved=1;entryX=0.5;entryY=0;entryDx=0;entryDy=0;" edge="1" parent="1" target="XoREdaPtWnGIuF7Jhx0u-117">
          <mxGeometry width="50" height="50" relative="1" as="geometry">
            <mxPoint x="1468" y="3491" as="sourcePoint" />
            <mxPoint x="1843" y="3449" as="targetPoint" />
          </mxGeometry>
        </mxCell>
        <mxCell id="XoREdaPtWnGIuF7Jhx0u-121" value="e_OffSet7_Copy&lt;br&gt;incrément par 100" style="rounded=0;whiteSpace=wrap;html=1;" vertex="1" parent="1">
          <mxGeometry x="1093" y="3365" width="120" height="60" as="geometry" />
        </mxCell>
        <mxCell id="XoREdaPtWnGIuF7Jhx0u-122" value="e_OffSet7_Copy&lt;br&gt;&amp;nbsp;décrément par 100" style="rounded=0;whiteSpace=wrap;html=1;" vertex="1" parent="1">
          <mxGeometry x="1613" y="3365" width="120" height="60" as="geometry" />
        </mxCell>
        <mxCell id="XoREdaPtWnGIuF7Jhx0u-123" value="" style="endArrow=classic;html=1;rounded=0;fontSize=12;startSize=8;endSize=8;curved=1;exitX=1;exitY=0.5;exitDx=0;exitDy=0;entryX=0;entryY=0.5;entryDx=0;entryDy=0;" edge="1" parent="1" source="XoREdaPtWnGIuF7Jhx0u-116" target="XoREdaPtWnGIuF7Jhx0u-122">
          <mxGeometry width="50" height="50" relative="1" as="geometry">
            <mxPoint x="1063" y="3405" as="sourcePoint" />
            <mxPoint x="1106" y="3405" as="targetPoint" />
          </mxGeometry>
        </mxCell>
        <mxCell id="XoREdaPtWnGIuF7Jhx0u-125" value="si Pec12.inc = 1" style="rhombus;whiteSpace=wrap;html=1;" vertex="1" parent="1">
          <mxGeometry x="1215" y="3795" width="210" height="190" as="geometry" />
        </mxCell>
        <mxCell id="XoREdaPtWnGIuF7Jhx0u-174" style="edgeStyle=none;curved=1;rounded=0;orthogonalLoop=1;jettySize=auto;html=1;entryX=0.5;entryY=0;entryDx=0;entryDy=0;fontSize=12;startSize=8;endSize=8;" edge="1" parent="1" source="XoREdaPtWnGIuF7Jhx0u-126" target="XoREdaPtWnGIuF7Jhx0u-160">
          <mxGeometry relative="1" as="geometry" />
        </mxCell>
        <mxCell id="XoREdaPtWnGIuF7Jhx0u-126" value="si Pec12.Dec= 1" style="rhombus;whiteSpace=wrap;html=1;" vertex="1" parent="1">
          <mxGeometry x="1539" y="3795" width="210" height="190" as="geometry" />
        </mxCell>
        <mxCell id="XoREdaPtWnGIuF7Jhx0u-127" style="edgeStyle=orthogonalEdgeStyle;rounded=0;orthogonalLoop=1;jettySize=auto;html=1;" edge="1" parent="1">
          <mxGeometry relative="1" as="geometry">
            <mxPoint x="1977" y="3905" as="targetPoint" />
            <mxPoint x="1946" y="3905" as="sourcePoint" />
          </mxGeometry>
        </mxCell>
        <mxCell id="XoREdaPtWnGIuF7Jhx0u-128" value="si&amp;nbsp;Pec12.OK= 1" style="rhombus;whiteSpace=wrap;html=1;" vertex="1" parent="1">
          <mxGeometry x="1851" y="3795" width="210" height="190" as="geometry" />
        </mxCell>
        <mxCell id="XoREdaPtWnGIuF7Jhx0u-131" style="edgeStyle=orthogonalEdgeStyle;rounded=0;orthogonalLoop=1;jettySize=auto;html=1;" edge="1" parent="1">
          <mxGeometry relative="1" as="geometry">
            <mxPoint x="2111" y="3890" as="targetPoint" />
            <mxPoint x="2061" y="3890" as="sourcePoint" />
          </mxGeometry>
        </mxCell>
        <mxCell id="XoREdaPtWnGIuF7Jhx0u-132" value="si&amp;nbsp;Pec12.ESC= 1" style="rhombus;whiteSpace=wrap;html=1;" vertex="1" parent="1">
          <mxGeometry x="2111" y="3795" width="210" height="190" as="geometry" />
        </mxCell>
        <mxCell id="XoREdaPtWnGIuF7Jhx0u-134" value="" style="endArrow=classic;html=1;rounded=0;exitX=0.5;exitY=1;exitDx=0;exitDy=0;entryX=0.5;entryY=0;entryDx=0;entryDy=0;" edge="1" parent="1" source="XoREdaPtWnGIuF7Jhx0u-132" target="XoREdaPtWnGIuF7Jhx0u-162">
          <mxGeometry width="50" height="50" relative="1" as="geometry">
            <mxPoint x="2161" y="4055" as="sourcePoint" />
            <mxPoint x="2216" y="4015" as="targetPoint" />
            <Array as="points">
              <mxPoint x="2216" y="4000" />
            </Array>
          </mxGeometry>
        </mxCell>
        <mxCell id="XoREdaPtWnGIuF7Jhx0u-149" value="" style="endArrow=classic;html=1;rounded=0;exitX=0.5;exitY=1;exitDx=0;exitDy=0;entryX=0.5;entryY=0;entryDx=0;entryDy=0;" edge="1" parent="1" target="XoREdaPtWnGIuF7Jhx0u-161">
          <mxGeometry width="50" height="50" relative="1" as="geometry">
            <mxPoint x="1956" y="3985" as="sourcePoint" />
            <mxPoint x="1956" y="4015" as="targetPoint" />
          </mxGeometry>
        </mxCell>
        <mxCell id="XoREdaPtWnGIuF7Jhx0u-154" value="s_menu = e_Slector" style="rounded=0;whiteSpace=wrap;html=1;" vertex="1" parent="1">
          <mxGeometry x="2156" y="4115" width="120" height="60" as="geometry" />
        </mxCell>
        <mxCell id="XoREdaPtWnGIuF7Jhx0u-155" value="s_menu = e_Slector" style="rounded=0;whiteSpace=wrap;html=1;" vertex="1" parent="1">
          <mxGeometry x="1896" y="4115" width="120" height="60" as="geometry" />
        </mxCell>
        <mxCell id="XoREdaPtWnGIuF7Jhx0u-156" value="s_menu = e_Slector" style="rounded=0;whiteSpace=wrap;html=1;" vertex="1" parent="1">
          <mxGeometry x="1584" y="4120" width="120" height="60" as="geometry" />
        </mxCell>
        <mxCell id="XoREdaPtWnGIuF7Jhx0u-157" value="s_menu = e_Slector" style="rounded=0;whiteSpace=wrap;html=1;" vertex="1" parent="1">
          <mxGeometry x="1256" y="4120" width="125" height="60" as="geometry" />
        </mxCell>
        <mxCell id="XoREdaPtWnGIuF7Jhx0u-158" value="s_menu = e_Slector" style="rounded=0;whiteSpace=wrap;html=1;" vertex="1" parent="1">
          <mxGeometry x="900" y="4220" width="125" height="60" as="geometry" />
        </mxCell>
        <mxCell id="XoREdaPtWnGIuF7Jhx0u-173" value="" style="edgeStyle=none;curved=1;rounded=0;orthogonalLoop=1;jettySize=auto;html=1;fontSize=12;startSize=8;endSize=8;" edge="1" parent="1" source="XoREdaPtWnGIuF7Jhx0u-159" target="XoREdaPtWnGIuF7Jhx0u-157">
          <mxGeometry relative="1" as="geometry" />
        </mxCell>
        <mxCell id="XoREdaPtWnGIuF7Jhx0u-159" value="affichage Save NOK" style="rounded=0;whiteSpace=wrap;html=1;" vertex="1" parent="1">
          <mxGeometry x="1201" y="4010" width="240" height="60" as="geometry" />
        </mxCell>
        <mxCell id="XoREdaPtWnGIuF7Jhx0u-160" value="affichage Save NOK" style="rounded=0;whiteSpace=wrap;html=1;" vertex="1" parent="1">
          <mxGeometry x="1524" y="4010" width="240" height="60" as="geometry" />
        </mxCell>
        <mxCell id="XoREdaPtWnGIuF7Jhx0u-176" value="" style="edgeStyle=none;curved=1;rounded=0;orthogonalLoop=1;jettySize=auto;html=1;fontSize=12;startSize=8;endSize=8;" edge="1" parent="1" source="XoREdaPtWnGIuF7Jhx0u-161" target="XoREdaPtWnGIuF7Jhx0u-155">
          <mxGeometry relative="1" as="geometry" />
        </mxCell>
        <mxCell id="XoREdaPtWnGIuF7Jhx0u-161" value="affichage Save NOK" style="rounded=0;whiteSpace=wrap;html=1;" vertex="1" parent="1">
          <mxGeometry x="1836" y="4020" width="240" height="60" as="geometry" />
        </mxCell>
        <mxCell id="XoREdaPtWnGIuF7Jhx0u-177" value="" style="edgeStyle=none;curved=1;rounded=0;orthogonalLoop=1;jettySize=auto;html=1;fontSize=12;startSize=8;endSize=8;" edge="1" parent="1" source="XoREdaPtWnGIuF7Jhx0u-162" target="XoREdaPtWnGIuF7Jhx0u-154">
          <mxGeometry relative="1" as="geometry" />
        </mxCell>
        <mxCell id="XoREdaPtWnGIuF7Jhx0u-162" value="affichage Save NOK" style="rounded=0;whiteSpace=wrap;html=1;" vertex="1" parent="1">
          <mxGeometry x="2096" y="4020" width="240" height="60" as="geometry" />
        </mxCell>
        <mxCell id="XoREdaPtWnGIuF7Jhx0u-164" value="" style="endArrow=classic;html=1;rounded=0;fontSize=12;startSize=8;endSize=8;curved=1;exitX=1;exitY=0.5;exitDx=0;exitDy=0;entryX=0;entryY=0.5;entryDx=0;entryDy=0;" edge="1" parent="1" source="ow5rzcQxI6N4TbthBqpr-65" target="XoREdaPtWnGIuF7Jhx0u-97">
          <mxGeometry width="50" height="50" relative="1" as="geometry">
            <mxPoint x="1230" y="4080" as="sourcePoint" />
            <mxPoint x="1280" y="4030" as="targetPoint" />
          </mxGeometry>
        </mxCell>
        <mxCell id="XoREdaPtWnGIuF7Jhx0u-165" value="" style="endArrow=classic;html=1;rounded=0;fontSize=12;startSize=8;endSize=8;curved=1;exitX=1;exitY=0.5;exitDx=0;exitDy=0;entryX=0;entryY=0.5;entryDx=0;entryDy=0;" edge="1" parent="1" source="XoREdaPtWnGIuF7Jhx0u-97" target="XoREdaPtWnGIuF7Jhx0u-125">
          <mxGeometry width="50" height="50" relative="1" as="geometry">
            <mxPoint x="1230" y="4080" as="sourcePoint" />
            <mxPoint x="1280" y="4030" as="targetPoint" />
          </mxGeometry>
        </mxCell>
        <mxCell id="XoREdaPtWnGIuF7Jhx0u-166" value="" style="endArrow=classic;html=1;rounded=0;fontSize=12;startSize=8;endSize=8;curved=1;exitX=1;exitY=0.5;exitDx=0;exitDy=0;entryX=0;entryY=0.5;entryDx=0;entryDy=0;" edge="1" parent="1" source="XoREdaPtWnGIuF7Jhx0u-125" target="XoREdaPtWnGIuF7Jhx0u-126">
          <mxGeometry width="50" height="50" relative="1" as="geometry">
            <mxPoint x="1750" y="4060" as="sourcePoint" />
            <mxPoint x="1800" y="4010" as="targetPoint" />
          </mxGeometry>
        </mxCell>
        <mxCell id="XoREdaPtWnGIuF7Jhx0u-167" value="" style="endArrow=classic;html=1;rounded=0;fontSize=12;startSize=8;endSize=8;curved=1;exitX=1;exitY=0.5;exitDx=0;exitDy=0;entryX=0;entryY=0.5;entryDx=0;entryDy=0;" edge="1" parent="1" source="XoREdaPtWnGIuF7Jhx0u-126" target="XoREdaPtWnGIuF7Jhx0u-128">
          <mxGeometry width="50" height="50" relative="1" as="geometry">
            <mxPoint x="1750" y="4060" as="sourcePoint" />
            <mxPoint x="1800" y="4010" as="targetPoint" />
          </mxGeometry>
        </mxCell>
        <mxCell id="XoREdaPtWnGIuF7Jhx0u-168" value="" style="endArrow=classic;html=1;rounded=0;fontSize=12;startSize=8;endSize=8;curved=1;exitX=0.5;exitY=1;exitDx=0;exitDy=0;entryX=0.5;entryY=0;entryDx=0;entryDy=0;" edge="1" parent="1" source="XoREdaPtWnGIuF7Jhx0u-125" target="XoREdaPtWnGIuF7Jhx0u-159">
          <mxGeometry width="50" height="50" relative="1" as="geometry">
            <mxPoint x="1750" y="4060" as="sourcePoint" />
            <mxPoint x="1800" y="4010" as="targetPoint" />
          </mxGeometry>
        </mxCell>
        <mxCell id="XoREdaPtWnGIuF7Jhx0u-169" value="" style="endArrow=classic;html=1;rounded=0;fontSize=12;startSize=8;endSize=8;curved=1;exitX=0.5;exitY=1;exitDx=0;exitDy=0;entryX=0.5;entryY=0;entryDx=0;entryDy=0;" edge="1" parent="1" source="XoREdaPtWnGIuF7Jhx0u-97" target="ow5rzcQxI6N4TbthBqpr-62">
          <mxGeometry width="50" height="50" relative="1" as="geometry">
            <mxPoint x="1750" y="4060" as="sourcePoint" />
            <mxPoint x="1800" y="4010" as="targetPoint" />
          </mxGeometry>
        </mxCell>
        <mxCell id="XoREdaPtWnGIuF7Jhx0u-175" style="edgeStyle=none;curved=1;rounded=0;orthogonalLoop=1;jettySize=auto;html=1;entryX=0.5;entryY=0;entryDx=0;entryDy=0;fontSize=12;startSize=8;endSize=8;" edge="1" parent="1" source="XoREdaPtWnGIuF7Jhx0u-160" target="XoREdaPtWnGIuF7Jhx0u-156">
          <mxGeometry relative="1" as="geometry" />
        </mxCell>
        <mxCell id="XoREdaPtWnGIuF7Jhx0u-178" value="oui" style="text;html=1;align=center;verticalAlign=middle;whiteSpace=wrap;rounded=0;" vertex="1" parent="1">
          <mxGeometry x="620" y="430" width="60" height="30" as="geometry" />
        </mxCell>
        <mxCell id="XoREdaPtWnGIuF7Jhx0u-179" value="oui" style="text;html=1;align=center;verticalAlign=middle;whiteSpace=wrap;rounded=0;" vertex="1" parent="1">
          <mxGeometry x="881" y="440" width="60" height="30" as="geometry" />
        </mxCell>
        <mxCell id="XoREdaPtWnGIuF7Jhx0u-180" value="oui" style="text;html=1;align=center;verticalAlign=middle;whiteSpace=wrap;rounded=0;" vertex="1" parent="1">
          <mxGeometry x="1140" y="440" width="60" height="30" as="geometry" />
        </mxCell>
        <mxCell id="XoREdaPtWnGIuF7Jhx0u-181" value="oui" style="text;html=1;align=center;verticalAlign=middle;whiteSpace=wrap;rounded=0;" vertex="1" parent="1">
          <mxGeometry x="1405" y="440" width="60" height="30" as="geometry" />
        </mxCell>
        <mxCell id="XoREdaPtWnGIuF7Jhx0u-182" value="oui" style="text;html=1;align=center;verticalAlign=middle;whiteSpace=wrap;rounded=0;" vertex="1" parent="1">
          <mxGeometry x="860" y="1090" width="60" height="30" as="geometry" />
        </mxCell>
        <mxCell id="XoREdaPtWnGIuF7Jhx0u-183" value="oui" style="text;html=1;align=center;verticalAlign=middle;whiteSpace=wrap;rounded=0;" vertex="1" parent="1">
          <mxGeometry x="1330" y="1100" width="60" height="30" as="geometry" />
        </mxCell>
        <mxCell id="XoREdaPtWnGIuF7Jhx0u-184" value="oui" style="text;html=1;align=center;verticalAlign=middle;whiteSpace=wrap;rounded=0;" vertex="1" parent="1">
          <mxGeometry x="1733" y="1079" width="60" height="30" as="geometry" />
        </mxCell>
        <mxCell id="XoREdaPtWnGIuF7Jhx0u-185" value="oui" style="text;html=1;align=center;verticalAlign=middle;whiteSpace=wrap;rounded=0;" vertex="1" parent="1">
          <mxGeometry x="2001" y="1079" width="60" height="30" as="geometry" />
        </mxCell>
        <mxCell id="XoREdaPtWnGIuF7Jhx0u-186" value="oui" style="text;html=1;align=center;verticalAlign=middle;whiteSpace=wrap;rounded=0;" vertex="1" parent="1">
          <mxGeometry x="827" y="1320" width="60" height="30" as="geometry" />
        </mxCell>
        <mxCell id="XoREdaPtWnGIuF7Jhx0u-187" value="oui" style="text;html=1;align=center;verticalAlign=middle;whiteSpace=wrap;rounded=0;" vertex="1" parent="1">
          <mxGeometry x="1338" y="1310" width="60" height="30" as="geometry" />
        </mxCell>
        <mxCell id="XoREdaPtWnGIuF7Jhx0u-188" value="oui" style="text;html=1;align=center;verticalAlign=middle;whiteSpace=wrap;rounded=0;" vertex="1" parent="1">
          <mxGeometry x="850" y="1910" width="60" height="30" as="geometry" />
        </mxCell>
        <mxCell id="XoREdaPtWnGIuF7Jhx0u-189" value="oui" style="text;html=1;align=center;verticalAlign=middle;whiteSpace=wrap;rounded=0;" vertex="1" parent="1">
          <mxGeometry x="850" y="2120" width="60" height="30" as="geometry" />
        </mxCell>
        <mxCell id="XoREdaPtWnGIuF7Jhx0u-190" value="oui" style="text;html=1;align=center;verticalAlign=middle;whiteSpace=wrap;rounded=0;" vertex="1" parent="1">
          <mxGeometry x="1375" y="1910" width="60" height="30" as="geometry" />
        </mxCell>
        <mxCell id="XoREdaPtWnGIuF7Jhx0u-191" value="oui" style="text;html=1;align=center;verticalAlign=middle;whiteSpace=wrap;rounded=0;" vertex="1" parent="1">
          <mxGeometry x="1365" y="2120" width="60" height="30" as="geometry" />
        </mxCell>
        <mxCell id="XoREdaPtWnGIuF7Jhx0u-192" value="oui" style="text;html=1;align=center;verticalAlign=middle;whiteSpace=wrap;rounded=0;" vertex="1" parent="1">
          <mxGeometry x="1630" y="1890" width="60" height="30" as="geometry" />
        </mxCell>
        <mxCell id="XoREdaPtWnGIuF7Jhx0u-194" value="oui" style="text;html=1;align=center;verticalAlign=middle;whiteSpace=wrap;rounded=0;" vertex="1" parent="1">
          <mxGeometry x="1880" y="1890" width="60" height="30" as="geometry" />
        </mxCell>
        <mxCell id="XoREdaPtWnGIuF7Jhx0u-195" value="oui" style="text;html=1;align=center;verticalAlign=middle;whiteSpace=wrap;rounded=0;" vertex="1" parent="1">
          <mxGeometry x="830" y="2689" width="60" height="30" as="geometry" />
        </mxCell>
        <mxCell id="XoREdaPtWnGIuF7Jhx0u-196" value="oui" style="text;html=1;align=center;verticalAlign=middle;whiteSpace=wrap;rounded=0;" vertex="1" parent="1">
          <mxGeometry x="1381" y="2680" width="60" height="30" as="geometry" />
        </mxCell>
        <mxCell id="XoREdaPtWnGIuF7Jhx0u-198" value="oui" style="text;html=1;align=center;verticalAlign=middle;whiteSpace=wrap;rounded=0;" vertex="1" parent="1">
          <mxGeometry x="1589" y="2650" width="60" height="30" as="geometry" />
        </mxCell>
        <mxCell id="XoREdaPtWnGIuF7Jhx0u-199" value="oui" style="text;html=1;align=center;verticalAlign=middle;whiteSpace=wrap;rounded=0;" vertex="1" parent="1">
          <mxGeometry x="870" y="2908" width="60" height="30" as="geometry" />
        </mxCell>
        <mxCell id="XoREdaPtWnGIuF7Jhx0u-200" value="oui" style="text;html=1;align=center;verticalAlign=middle;whiteSpace=wrap;rounded=0;" vertex="1" parent="1">
          <mxGeometry x="1363" y="2900" width="60" height="30" as="geometry" />
        </mxCell>
        <mxCell id="XoREdaPtWnGIuF7Jhx0u-201" value="oui" style="text;html=1;align=center;verticalAlign=middle;whiteSpace=wrap;rounded=0;" vertex="1" parent="1">
          <mxGeometry x="1864" y="2659" width="60" height="30" as="geometry" />
        </mxCell>
        <mxCell id="XoREdaPtWnGIuF7Jhx0u-202" value="oui" style="text;html=1;align=center;verticalAlign=middle;whiteSpace=wrap;rounded=0;" vertex="1" parent="1">
          <mxGeometry x="850" y="3270" width="60" height="30" as="geometry" />
        </mxCell>
        <mxCell id="XoREdaPtWnGIuF7Jhx0u-203" value="oui" style="text;html=1;align=center;verticalAlign=middle;whiteSpace=wrap;rounded=0;" vertex="1" parent="1">
          <mxGeometry x="1375" y="3260" width="60" height="30" as="geometry" />
        </mxCell>
        <mxCell id="XoREdaPtWnGIuF7Jhx0u-204" value="oui" style="text;html=1;align=center;verticalAlign=middle;whiteSpace=wrap;rounded=0;" vertex="1" parent="1">
          <mxGeometry x="845" y="3490" width="60" height="30" as="geometry" />
        </mxCell>
        <mxCell id="XoREdaPtWnGIuF7Jhx0u-205" value="oui" style="text;html=1;align=center;verticalAlign=middle;whiteSpace=wrap;rounded=0;" vertex="1" parent="1">
          <mxGeometry x="1356" y="3477" width="60" height="30" as="geometry" />
        </mxCell>
        <mxCell id="XoREdaPtWnGIuF7Jhx0u-206" value="oui" style="text;html=1;align=center;verticalAlign=middle;whiteSpace=wrap;rounded=0;" vertex="1" parent="1">
          <mxGeometry x="1594" y="3250" width="60" height="30" as="geometry" />
        </mxCell>
        <mxCell id="XoREdaPtWnGIuF7Jhx0u-207" value="oui" style="text;html=1;align=center;verticalAlign=middle;whiteSpace=wrap;rounded=0;" vertex="1" parent="1">
          <mxGeometry x="1880" y="3240" width="60" height="30" as="geometry" />
        </mxCell>
        <mxCell id="XoREdaPtWnGIuF7Jhx0u-208" value="oui" style="text;html=1;align=center;verticalAlign=middle;whiteSpace=wrap;rounded=0;" vertex="1" parent="1">
          <mxGeometry x="828" y="3960" width="60" height="30" as="geometry" />
        </mxCell>
        <mxCell id="XoREdaPtWnGIuF7Jhx0u-209" value="oui" style="text;html=1;align=center;verticalAlign=middle;whiteSpace=wrap;rounded=0;" vertex="1" parent="1">
          <mxGeometry x="1225" y="3970" width="60" height="30" as="geometry" />
        </mxCell>
        <mxCell id="XoREdaPtWnGIuF7Jhx0u-210" value="oui" style="text;html=1;align=center;verticalAlign=middle;whiteSpace=wrap;rounded=0;" vertex="1" parent="1">
          <mxGeometry x="1521" y="3970" width="60" height="30" as="geometry" />
        </mxCell>
        <mxCell id="XoREdaPtWnGIuF7Jhx0u-211" value="oui" style="text;html=1;align=center;verticalAlign=middle;whiteSpace=wrap;rounded=0;" vertex="1" parent="1">
          <mxGeometry x="1836" y="3985" width="60" height="30" as="geometry" />
        </mxCell>
        <mxCell id="XoREdaPtWnGIuF7Jhx0u-212" value="oui" style="text;html=1;align=center;verticalAlign=middle;whiteSpace=wrap;rounded=0;" vertex="1" parent="1">
          <mxGeometry x="2120" y="3985" width="60" height="30" as="geometry" />
        </mxCell>
        <mxCell id="XoREdaPtWnGIuF7Jhx0u-217" value="non" style="text;html=1;align=center;verticalAlign=middle;whiteSpace=wrap;rounded=0;" vertex="1" parent="1">
          <mxGeometry x="1033" y="3350" width="60" height="30" as="geometry" />
        </mxCell>
        <mxCell id="XoREdaPtWnGIuF7Jhx0u-218" value="non" style="text;html=1;align=center;verticalAlign=middle;whiteSpace=wrap;rounded=0;" vertex="1" parent="1">
          <mxGeometry x="1530" y="1170" width="60" height="30" as="geometry" />
        </mxCell>
        <mxCell id="XoREdaPtWnGIuF7Jhx0u-219" value="non" style="text;html=1;align=center;verticalAlign=middle;whiteSpace=wrap;rounded=0;" vertex="1" parent="1">
          <mxGeometry x="1020" y="1155" width="60" height="30" as="geometry" />
        </mxCell>
        <mxCell id="XoREdaPtWnGIuF7Jhx0u-220" value="non" style="text;html=1;align=center;verticalAlign=middle;whiteSpace=wrap;rounded=0;" vertex="1" parent="1">
          <mxGeometry x="1020" y="1990" width="60" height="30" as="geometry" />
        </mxCell>
        <mxCell id="XoREdaPtWnGIuF7Jhx0u-221" value="non" style="text;html=1;align=center;verticalAlign=middle;whiteSpace=wrap;rounded=0;" vertex="1" parent="1">
          <mxGeometry x="1540" y="2005" width="60" height="30" as="geometry" />
        </mxCell>
        <mxCell id="XoREdaPtWnGIuF7Jhx0u-222" value="non" style="text;html=1;align=center;verticalAlign=middle;whiteSpace=wrap;rounded=0;" vertex="1" parent="1">
          <mxGeometry x="1025" y="2780" width="60" height="30" as="geometry" />
        </mxCell>
        <mxCell id="XoREdaPtWnGIuF7Jhx0u-224" value="" style="endArrow=classic;html=1;rounded=0;fontSize=12;startSize=8;endSize=8;curved=1;exitX=1;exitY=0.5;exitDx=0;exitDy=0;entryX=0;entryY=0.5;entryDx=0;entryDy=0;" edge="1" parent="1" source="XoREdaPtWnGIuF7Jhx0u-87" target="XoREdaPtWnGIuF7Jhx0u-223">
          <mxGeometry width="50" height="50" relative="1" as="geometry">
            <mxPoint x="1566" y="2814" as="sourcePoint" />
            <mxPoint x="1606" y="2814" as="targetPoint" />
          </mxGeometry>
        </mxCell>
        <mxCell id="XoREdaPtWnGIuF7Jhx0u-223" value="non" style="text;html=1;align=center;verticalAlign=middle;whiteSpace=wrap;rounded=0;" vertex="1" parent="1">
          <mxGeometry x="1550" y="2780" width="60" height="30" as="geometry" />
        </mxCell>
        <mxCell id="XoREdaPtWnGIuF7Jhx0u-225" value="non" style="text;html=1;align=center;verticalAlign=middle;whiteSpace=wrap;rounded=0;" vertex="1" parent="1">
          <mxGeometry x="1553" y="3360" width="60" height="30" as="geometry" />
        </mxCell>
      </root>
    </mxGraphModel>
  </diagram>
</mxfile>
